<svg id="Layer_1" data-name="Layer 1" xmlns="http://www.w3.org/2000/svg" viewBox="0 0 100 100"><defs><style>.cls-1{fill:#cc203b;}</style></defs><title>STL-votes-aldermanic-icon</title><polygon class="cls-1" points="54.77 58.7 65.39 60.31 57.65 67.77 59.4 78.37 49.92 73.31 40.38 78.25 42.26 67.67 34.61 60.13 45.25 58.64 50.07 49.04 54.77 58.7"/><polygon class="cls-1" points="74.27 31.3 84.89 32.91 77.15 40.36 78.9 50.96 69.42 45.91 59.88 50.85 61.76 40.27 54.11 32.72 64.75 31.24 69.57 21.63 74.27 31.3"/><polygon class="cls-1" points="35.27 31.3 45.89 32.91 38.15 40.36 39.9 50.96 30.42 45.91 20.88 50.85 22.76 40.27 15.11 32.72 25.75 31.24 30.57 21.63 35.27 31.3"/></svg>