<svg id="Layer_1" data-name="Layer 1" xmlns="http://www.w3.org/2000/svg" xmlns:xlink="http://www.w3.org/1999/xlink" viewBox="0 0 764.2 446.91"><defs><style>.cls-1,.cls-8{fill:none;}.cls-2,.cls-9{fill:#cc203b;}.cls-3,.cls-6{fill:#fff;}.cls-3,.cls-8{stroke:#fff;}.cls-3,.cls-4,.cls-8{stroke-miterlimit:10;}.cls-3{stroke-width:6px;}.cls-4{fill:#036c8e;stroke:#036c8e;stroke-width:24px;}.cls-5{clip-path:url(#clip-path);}.cls-7{fill:#348fb4;}.cls-8{stroke-width:3px;}.cls-9{font-size:109.57px;}.cls-13,.cls-9{font-family:Montserrat-Bold, Montserrat;font-weight:700;}.cls-10{letter-spacing:-0.03em;}.cls-11{fill:#d25050;}.cls-12{font-size:160.44px;fill:#066c8e;}.cls-13{font-size:78.26px;letter-spacing:-0.03em;}.cls-13,.cls-16{fill:#feeb9b;}.cls-14{letter-spacing:-0.04em;}.cls-15{letter-spacing:-0.02em;}</style><clipPath id="clip-path"><path class="cls-1" d="M298.45,170.45c-38.56-3.2-77.77,35-80.2,99.19H204.94c2.94-39.9,32.27-78.45,32.27-113.52,0-37.47-14.33-60.07-39.4-94.78-25.07,34.72-39.4,57.31-39.4,94.78,0,35.07,29.33,73.62,32.27,113.52H177.37c-2.43-64.24-41.64-102.4-80.2-99.19-99.74,13.23-42.43,123.44,17.63,87.07-24.8-17.63-5.51-33.62,8.27-33.62,13.12,0,42.25,5,45,45.74H157.79v14.88H168c-2.71,37.81-23.4,36.37-23.4,36.37-17.63-2.2-13.78-15.43-11-21.49-36.92,10.47-15.43,46.29,5.51,42.43,13,0,35.79-9.72,38.22-57.31H190c-3,16.4-12.63,36.94-12,55.11,0,28.66,19.76,50.7,19.76,50.7s19.76-22,19.76-50.7c.63-18.17-9-38.7-12-55.11h12.77c2.43,47.59,25.19,57.31,38.22,57.31,20.94,3.86,42.43-32,5.51-42.43,2.76,6.06,6.61,19.29-11,21.49,0,0-20.69,1.44-23.4-36.37h9.07V269.64h-9.16c2.73-40.74,31.86-45.74,45-45.74,13.78,0,33.06,16,8.27,33.62C340.88,293.89,398.19,183.67,298.45,170.45Z"/></clipPath></defs><title>STL-votes-headerArtboard 1</title><rect class="cls-2" x="292.56" y="158.33" width="344.79" height="84.44"/><path class="cls-3" d="M363,203.26c-3.65-14.06-16.69-38.57-63-44.71l-.58-.06c-18.41-1.53-37,4.69-52.61,17.56a91.65,91.65,0,0,0,2.38-19.93c0-41.14-15.74-65.91-41.67-101.81l-9.73-13.47-9.73,13.47c-25.93,35.9-41.67,60.67-41.67,101.81A91.65,91.65,0,0,0,148.79,176C133.15,163.18,114.6,157,96.18,158.49l-.58.06c-46.27,6.14-59.31,30.64-63,44.71-5.7,21.92,4.07,47.46,23.75,62.12,19.26,14.35,43.43,15.25,64.65,2.4l15.62-9.46-14.88-10.58c-6.18-4.4-7-7.29-6.91-7.57.51-1.6,4.68-4.26,8.22-4.26,11.6,0,25.31,4.11,30.77,21.74h-8.05v25.81l-15.52,4.4c-25.62,7.26-31.07,25.44-28,38.79,4.05,17.37,21.21,29.58,37.83,27.16a44.05,44.05,0,0,0,26-10.08c1.69,30.81,21.82,53.61,22.71,54.61l8.94,10,8.94-10c.89-1,21-23.8,22.71-54.61a44.06,44.06,0,0,0,26,10.08c16.61,2.41,33.77-9.79,37.83-27.16,3.12-13.35-2.33-31.53-28-38.79l-16.62-4.71v-25.5h-7C247.23,240,261,235.9,272.55,235.9c3.54,0,7.71,2.66,8.22,4.26.09.28-.72,3.18-6.91,7.57L259,258.32l15.62,9.46c21.22,12.85,45.38,12,64.65-2.4C358.92,250.72,368.69,225.18,363,203.26ZM250.52,308.85l.11,0-.1,0Zm-106.05-4.49,3.57-7.84h5.88c-2.47,8.71-6.33,11.88-8.77,12.33a12,12,0,0,1-1.94-.48A14.78,14.78,0,0,1,144.47,304.36Zm103.12-7.84,3.57,7.84a14.78,14.78,0,0,1,1.27,4,12,12,0,0,1-1.94.48c-2.44-.45-6.3-3.62-8.77-12.33Z"/><path class="cls-4" d="M298.45,170.45c-38.56-3.2-77.77,35-80.2,99.19H204.94c2.94-39.9,32.27-78.45,32.27-113.52,0-37.47-14.33-60.07-39.4-94.78-25.07,34.72-39.4,57.31-39.4,94.78,0,35.07,29.33,73.62,32.27,113.52H177.37c-2.43-64.24-41.64-102.4-80.2-99.19-99.74,13.23-42.43,123.44,17.63,87.07-24.8-17.63-5.51-33.62,8.27-33.62,13.12,0,42.25,5,45,45.74H157.79v14.88H168c-2.71,37.81-23.4,36.37-23.4,36.37-17.63-2.2-13.78-15.43-11-21.49-36.92,10.47-15.43,46.29,5.51,42.43,13,0,35.79-9.72,38.22-57.31H190c-3,16.4-12.63,36.94-12,55.11,0,28.66,19.76,50.7,19.76,50.7s19.76-22,19.76-50.7c.63-18.17-9-38.7-12-55.11h12.77c2.43,47.59,25.19,57.31,38.22,57.31,20.94,3.86,42.43-32,5.51-42.43,2.76,6.06,6.61,19.29-11,21.49,0,0-20.69,1.44-23.4-36.37h9.07V269.64h-9.16c2.73-40.74,31.86-45.74,45-45.74,13.78,0,33.06,16,8.27,33.62C340.88,293.89,398.19,183.67,298.45,170.45Z"/><g class="cls-5"><rect class="cls-2" x="75.98" y="-64.09" width="140.39" height="391.26" transform="translate(152.16 -65.01) rotate(49.76)"/><rect class="cls-2" x="192.92" y="74.09" width="140.39" height="391.26" transform="translate(299.04 -105.36) rotate(49.76)"/><rect class="cls-6" x="171.98" y="10.62" width="74.85" height="391.26" transform="translate(231.57 -86.83) rotate(49.76)"/><rect class="cls-7" x="179.7" y="12.34" width="55.42" height="391.26" transform="translate(232.18 -84.7) rotate(49.76)"/></g><path class="cls-8" d="M298.45,170.45c-38.56-3.2-77.77,35-80.2,99.19H204.94c2.94-39.9,32.27-78.45,32.27-113.52,0-37.47-14.33-60.07-39.4-94.78-25.07,34.72-39.4,57.31-39.4,94.78,0,35.07,29.33,73.62,32.27,113.52H177.37c-2.43-64.24-41.64-102.4-80.2-99.19-99.74,13.23-42.43,123.44,17.63,87.07-24.8-17.63-5.51-33.62,8.27-33.62,13.12,0,42.25,5,45,45.74H157.79v14.88H168c-2.71,37.81-23.4,36.37-23.4,36.37-17.63-2.2-13.78-15.43-11-21.49-36.92,10.47-15.43,46.29,5.51,42.43,13,0,35.79-9.72,38.22-57.31H190c-3,16.4-12.63,36.94-12,55.11,0,28.66,19.76,50.7,19.76,50.7s19.76-22,19.76-50.7c.63-18.17-9-38.7-12-55.11h12.77c2.43,47.59,25.19,57.31,38.22,57.31,20.94,3.86,42.43-32,5.51-42.43,2.76,6.06,6.61,19.29-11,21.49,0,0-20.69,1.44-23.4-36.37h9.07V269.64h-9.16c2.73-40.74,31.86-45.74,45-45.74,13.78,0,33.06,16,8.27,33.62C340.88,293.89,398.19,183.67,298.45,170.45Z"/><text class="cls-9" transform="translate(281.58 151.42)"><tspan class="cls-10">St. Louis</tspan><tspan class="cls-11"><tspan x="438.82" y="76.31"> </tspan></tspan><tspan class="cls-12"><tspan x="69.65" y="217.19">2017</tspan></tspan></text><text class="cls-13" transform="translate(366.24 229.29)">V<tspan class="cls-14" x="54.71" y="0">O</tspan><tspan class="cls-15" x="114.11" y="0">TES</tspan></text><polygon class="cls-16" points="186.97 128.5 197.89 122.75 195.81 134.92 204.64 143.53 192.43 145.3 186.97 156.37 181.51 145.3 169.3 143.53 178.13 134.92 176.05 122.75 186.97 128.5"/><polygon class="cls-16" points="107.67 202.4 115.06 198.52 113.64 206.74 119.62 212.57 111.36 213.77 107.67 221.25 103.97 213.77 95.72 212.57 101.69 206.74 100.28 198.52 107.67 202.4"/><polygon class="cls-16" points="78.79 193.06 86.18 189.18 84.77 197.4 90.75 203.23 82.49 204.43 78.79 211.91 75.1 204.43 66.84 203.23 72.82 197.4 71.41 189.18 78.79 193.06"/><polygon class="cls-16" points="83.6 222.11 90.99 218.23 89.58 226.45 95.56 232.28 87.3 233.48 83.6 240.96 79.91 233.48 71.65 232.28 77.63 226.45 76.22 218.23 83.6 222.11"/><rect class="cls-16" x="634.47" y="163.5" width="73.87" height="73.88"/><path class="cls-2" d="M705.22,168.21V233H640.48V168.21h64.74M715,158.4H630.67v84.36H715V158.4Z"/><polygon class="cls-2" points="680.3 174.27 666.43 215.8 652.06 196.26 647.3 207.41 657.81 228.91 674.64 228.91 698.9 174.05 680.3 174.27"/></svg>